<svg xmlns="http://www.w3.org/2000/svg" xmlns:xlink="http://www.w3.org/1999/xlink" width="500" zoomAndPan="magnify" viewBox="0 0 375 374.999991" height="500" preserveAspectRatio="xMidYMid meet" version="1.0"><defs><clipPath id="00ece031b9"><path d="M 75 8.40625 L 341 8.40625 L 341 363 L 75 363 Z M 75 8.40625 " clip-rule="nonzero"/></clipPath><clipPath id="bdf5bee421"><path d="M 29.675781 97 L 253 97 L 253 314 L 29.675781 314 Z M 29.675781 97 " clip-rule="nonzero"/></clipPath></defs><g clip-path="url(#00ece031b9)"><path fill="#333333" d="M 166.589844 50.675781 C 145.105469 50.675781 123.625 50.6875 102.140625 50.65625 C 99.207031 50.65625 96.210938 50.707031 93.339844 50.222656 C 81.695312 48.296875 75.273438 40.09375 76.058594 28.464844 C 76.835938 16.933594 84.960938 9.207031 97.097656 9.039062 C 117.402344 8.734375 137.707031 8.59375 158.011719 8.613281 C 182.285156 8.632812 206.5625 8.753906 230.839844 9.078125 C 287.777344 9.84375 332.488281 49.558594 339.757812 106.164062 C 345.355469 149.769531 319.738281 216.144531 249.679688 227.007812 C 235.667969 229.183594 221.261719 229.054688 207.027344 229.558594 C 195.5625 229.960938 184.070312 229.617188 172.597656 229.789062 C 166.136719 229.882812 162.375 231.34375 162.457031 239.644531 C 162.699219 264.671875 162.488281 289.707031 162.417969 314.742188 C 162.394531 323.871094 162.527344 333.011719 162.175781 342.117188 C 161.589844 357.351562 147.699219 366.722656 133.542969 361.515625 C 125.136719 358.429688 120.75 351.84375 120.597656 343.226562 C 120.15625 318.070312 120.15625 292.894531 120.113281 267.726562 C 120.09375 250.359375 120.296875 232.976562 120.425781 215.609375 C 120.449219 212.664062 120.449219 209.707031 120.808594 206.792969 C 122.414062 193.757812 128.964844 187.699219 142.191406 187.554688 C 161.46875 187.355469 180.746094 187.554688 200.019531 187.425781 C 212.21875 187.34375 224.4375 187.375 236.617188 186.6875 C 277.6875 184.398438 321.238281 132.078125 285.328125 79.625 C 273.082031 61.730469 256.050781 51.996094 234.558594 51.371094 C 211.917969 50.707031 189.253906 51.222656 166.589844 51.222656 C 166.589844 51.050781 166.589844 50.859375 166.589844 50.675781 Z M 166.589844 50.675781 " fill-opacity="1" fill-rule="nonzero"/></g><g clip-path="url(#bdf5bee421)"><path fill="#333333" d="M 101.878906 313.117188 C 93.609375 308.648438 85.949219 305.453125 79.34375 300.761719 C 46.347656 277.410156 29.632812 245.070312 29.875 204.792969 C 30.160156 157.195312 64.121094 113.15625 108.5 102.339844 C 120.40625 99.4375 132.9375 98.238281 145.226562 97.964844 C 174.492188 97.308594 203.78125 97.582031 233.058594 97.671875 C 241.414062 97.703125 250.808594 106.710938 252.433594 115.597656 C 254.085938 124.613281 248.378906 135.589844 239.519531 138.886719 C 235.234375 140.480469 230.355469 141.085938 225.738281 141.125 C 197.339844 141.386719 168.9375 141.167969 140.539062 141.480469 C 102.472656 141.902344 72.609375 173.738281 74.769531 211.726562 C 75.859375 230.839844 83.914062 246.847656 98.710938 259.171875 C 100.960938 261.050781 101.96875 262.867188 101.9375 265.820312 C 101.808594 280.980469 101.878906 296.140625 101.878906 313.117188 Z M 101.878906 313.117188 " fill-opacity="1" fill-rule="nonzero"/></g><path fill="#333333" d="M 179.828125 318.605469 C 179.828125 303.878906 179.828125 289.808594 179.828125 275.089844 C 183.394531 275.089844 186.734375 275.089844 190.070312 275.089844 C 216.847656 275.109375 243.621094 275.089844 270.398438 275.191406 C 273.605469 275.203125 276.890625 275.542969 280.007812 276.3125 C 290.933594 279.003906 297.386719 287.398438 296.992188 298.027344 C 296.601562 308.769531 289.714844 316.425781 278.484375 318.402344 C 275.742188 318.886719 272.929688 319.152344 270.148438 319.160156 C 243.519531 319.230469 216.886719 319.242188 190.261719 319.199219 C 186.902344 319.199219 183.546875 318.828125 179.828125 318.605469 Z M 179.828125 318.605469 " fill-opacity="1" fill-rule="nonzero"/></svg>